HIERARCHY
ROOT RootJoint
{
    OFFSET   0.000000   0.000000   0.000000
    CHANNELS 6 Xposition Yposition Zposition Xrotation Yrotation Zrotation
    JOINT pelvis_lowerback
    {
        OFFSET   0.000000   0.093605   0.000000
        CHANNELS 3 Xrotation Yrotation Zrotation
        JOINT lowerback_torso
        {
            OFFSET   0.000000   0.100000   0.000000
            CHANNELS 3 Xrotation Yrotation Zrotation
            JOINT torso_head
            {
                OFFSET   0.000000   0.282350   0.000000
                CHANNELS 3 Xrotation Yrotation Zrotation
                End Site
                {
                    OFFSET   0.000000   0.192650   0.000000
                }
            }
            JOINT rTorso_Clavicle
            {
                OFFSET  -0.001000   0.157500   0.000000
                CHANNELS 3 Xrotation Yrotation Zrotation
                JOINT rShoulder
                {
                    OFFSET  -0.117647   0.000000   0.000000
                    CHANNELS 3 Xrotation Yrotation Zrotation
                    JOINT rElbow
                    {
                        OFFSET  -0.245000   0.000000   0.000000
                        CHANNELS 3 Xrotation Yrotation Zrotation
                        JOINT rWrist
                        {
                            OFFSET  -0.240000   0.000000   0.000000
                            CHANNELS 3 Xrotation Yrotation Zrotation
                            End Site
                            {
                                OFFSET  -0.116353  -0.002500   0.000000
                            }
                        }
                    }
                }
            }
            JOINT lTorso_Clavicle
            {
                OFFSET   0.001000   0.157500   0.000000
                CHANNELS 3 Xrotation Yrotation Zrotation
                JOINT lShoulder
                {
                    OFFSET   0.117647   0.000000   0.000000
                    CHANNELS 3 Xrotation Yrotation Zrotation
                    JOINT lElbow
                    {
                        OFFSET   0.245000   0.000000   0.000000
                        CHANNELS 3 Xrotation Yrotation Zrotation
                        JOINT lWrist
                        {
                            OFFSET   0.240000   0.000000   0.000000
                            CHANNELS 3 Xrotation Yrotation Zrotation
                            End Site
                            {
                                OFFSET   0.116353  -0.002500   0.000000
                            }
                        }
                    }
                }
            }
        }
    }
    JOINT rHip
    {
        OFFSET  -0.100000  -0.051395   0.000000
        CHANNELS 3 Xrotation Yrotation Zrotation
        JOINT rKnee
        {
            OFFSET   0.000000  -0.410000   0.000000
            CHANNELS 3 Xrotation Yrotation Zrotation
            JOINT rAnkle
            {
                OFFSET   0.000000  -0.390000   0.000000
                CHANNELS 3 Xrotation Yrotation Zrotation
                JOINT rToeJoint
                {
                    OFFSET   0.000000  -0.050000   0.130000
                    CHANNELS 3 Xrotation Yrotation Zrotation
                    End Site
                    {
                        OFFSET  -0.010000   0.002000   0.060000
                    }
                }
            }
        }
    }
    JOINT lHip
    {
        OFFSET   0.100000  -0.051395   0.000000
        CHANNELS 3 Xrotation Yrotation Zrotation
        JOINT lKnee
        {
            OFFSET   0.000000  -0.410000   0.000000
            CHANNELS 3 Xrotation Yrotation Zrotation
            JOINT lAnkle
            {
                OFFSET   0.000000  -0.390000   0.000000
                CHANNELS 3 Xrotation Yrotation Zrotation
                JOINT lToeJoint
                {
                    OFFSET   0.000000  -0.050000   0.130000
                    CHANNELS 3 Xrotation Yrotation Zrotation
                    End Site
                    {
                        OFFSET   0.010000   0.002000   0.060000
                    }
                }
            }
        }
    }
}
MOTION
Frames: 10
Frame Time:   0.008333
 -2.376719   0.925631   3.975860   0.000000   0.000000   0.000000   0.000000   0.000000   0.000000   0.000000   0.000000   0.000000   0.000000   0.000000   0.000000   0.000000   0.000000   0.000000   0.000000   0.000000   0.000000   0.000000   0.000000   0.000000   0.000000   0.000000   0.000000   0.000000   0.000000   0.000000   0.000000   0.000000   0.000000   0.000000   0.000000   0.000000   0.000000   0.000000   0.000000   0.000000   0.000000   0.000000   0.000000   0.000000   0.000000   0.000000   0.000000   0.000000   0.000000   0.000000   0.000000   0.000000   0.000000   0.000000   0.000000   0.000000   0.000000   0.000000   0.000000   0.000000   0.000000   0.000000   0.000000
 -2.376417   0.926093   3.973102   0.083973  -0.585876   0.440043   0.395096   0.391583  -0.459477   0.142368  -0.029974  -0.197673  -0.128096  -0.544117   0.372942   0.050713  -0.004435   0.423475   0.656306   0.065176   2.168720   0.032122   1.534284  -0.018131   0.097458  -0.780121  -2.904200   0.346910   0.371910  -0.213800   0.770376  -0.119663  -1.695868   0.026795  -1.431494   0.022020   0.188867   0.741264   2.547804  -1.899212   0.259836  -0.572649   3.743281   0.004429  -0.011344  -1.006230   0.373579   0.541783  -0.107510   0.000371  -0.000026  -0.967027   0.010493  -0.483020   2.590198   0.000797  -0.013201  -1.978353  -0.146162   0.169639   0.414935  -0.000413  -0.002634
 -2.376019   0.926752   3.969768  -0.031987  -1.263076   0.933457   1.007168   0.748710  -0.956358   0.529257  -0.052417  -0.440386  -0.186772  -1.078060   0.719878   0.101298   0.148063   1.522985   1.288815   0.306915   4.891015   0.074617   3.049519  -0.035658   0.231145  -1.034017  -5.124958   0.690380   0.615951  -1.085198   1.485845  -0.355443  -3.798448   0.061984  -2.834883   0.041931   0.418329   1.042379   4.452467  -3.900460   0.515734  -1.233744   7.779166   0.008620  -0.026855  -1.918035   0.714204   1.054111  -0.115707   0.000320  -0.000008  -1.705202   0.000859  -1.001510   5.328244  -0.000185  -0.027524  -3.818570  -0.295421   0.321682   0.738497  -0.000683  -0.004523
 -2.375639   0.927290   3.966154  -0.215771  -1.854718   1.413321   1.715221   1.018209  -1.444961   1.014886  -0.117813  -0.687163  -0.213422  -1.580121   1.037810   0.134928   0.400544   3.023619   1.888334   0.667366   7.962015   0.117116   4.497166  -0.049860   0.381957  -1.024432  -6.565801   1.014436   0.700412  -2.371073   2.136251  -0.705330  -6.107815   0.096763  -4.182470   0.057829   0.654300   1.077475   5.600256  -5.975145   0.839558  -1.816758  11.686937   0.008994  -0.035279  -2.862402   1.109555   1.555975  -1.190613   0.003778   0.000064  -2.296387  -0.012038  -1.479458   7.957630  -0.002690  -0.036481  -5.532132  -0.441064   0.456394   1.039749  -0.000947  -0.005665
 -2.375215   0.927383   3.962591  -0.413322  -2.411185   1.879492   2.445733   1.239713  -1.912885   1.530721  -0.207597  -0.932277  -0.222518  -2.049110   1.330090   0.145181   0.716177   4.739204   2.449638   1.118241  11.248280   0.154574   5.870870  -0.059999   0.547282  -0.858120  -7.422488   1.312670   0.664400  -3.895362   2.721455  -1.140970  -8.499047   0.126717  -5.470506   0.069450   0.898559   0.917542   6.174532  -8.042303   1.098720  -2.408365  15.390739   0.008892  -0.043961  -3.658336   1.383997   2.011451  -1.132136   0.002864  -0.000057  -2.758313  -0.017719  -1.924125  10.434197  -0.005762  -0.041762  -7.131854  -0.579692   0.577141   1.307497  -0.001159  -0.006243
 -2.374746   0.926839   3.959213  -0.597431  -2.915395   2.313968   3.167968   1.410658  -2.343013   2.040208  -0.322547  -1.148001  -0.223647  -2.487375   1.596396   0.131694   1.061747   6.611887   2.942018   1.611615  14.511252   0.183871   7.168081  -0.065932   0.720185  -0.596168  -7.794798   1.579950   0.541716  -5.548069   3.242600  -1.635366 -10.894406   0.149937  -6.695913   0.077174   1.147702   0.619002   6.351827 -10.073056   1.358751  -2.984401  18.822123   0.008568  -0.049600  -4.401944   1.630994   2.439730  -1.058745   0.002122  -0.000194  -3.124415  -0.021839  -2.319950  12.765132  -0.008825  -0.043921  -8.625372  -0.711750   0.685114   1.545865  -0.001313  -0.006392
 -2.374237   0.925517   3.956098  -0.761956  -3.368793   2.715990   3.867800   1.536801  -2.731064   2.529306  -0.459796  -1.330199  -0.219767  -2.896709   1.842396   0.096816   1.407961   8.548272   3.370672   2.119920  17.688174   0.204385   8.386394  -0.068265   0.891530  -0.292042  -7.846084   1.814672   0.364632  -7.248302   3.702979  -2.162467 -13.240659   0.165984  -7.856121   0.081535   1.395972   0.231199   6.267797 -12.056067   1.624742  -3.540286  21.994692   0.008225  -0.052657  -5.099926   1.855160   2.842542  -1.000445   0.001584  -0.000274  -3.406686  -0.025689  -2.669560  14.958610  -0.011520  -0.043785 -10.019530  -0.837111   0.781742   1.759726  -0.001410  -0.006256
 -2.373914   0.922824   3.952490  -1.025390  -3.859605   2.923087   4.973080   1.695012  -2.963234   2.758303  -0.518612  -1.443031  -0.421957  -3.335389   1.984511  -0.039114   1.921672  10.112342   3.668754   2.411372  20.536060   0.207968   9.459602  -0.066901   0.955009  -0.040482  -7.128227   1.776604  -0.003188  -8.422426   4.024750  -2.861169 -15.483525   0.176745  -9.155760   0.084763   1.401085   0.241978   5.443216 -14.319846   1.499576  -3.846659  25.650222   0.000752  -0.069505  -4.405980   2.011673   3.184638  -0.726789   0.000346  -0.002126  -3.416776   0.166861  -2.783193  16.910614  -0.013354  -0.039365 -11.776072  -0.949293   0.934324   2.178169  -0.002192  -0.006476
 -2.373716   0.919418   3.948804  -1.254424  -4.217676   3.035008   6.051512   1.768132  -3.129408   2.973049  -0.636518  -1.497777  -0.621581  -3.743748   2.114338  -0.207103   2.453747  11.471705   3.919090   2.724032  23.108538   0.204281  10.467667  -0.064414   1.006159   0.186075  -6.495441   1.691313  -0.477857  -9.372043   4.273091  -3.619768 -17.461557   0.178737 -10.410268   0.086578   1.413501   0.109522   4.743550 -16.563666   1.369681  -3.912293  29.274266  -0.010635  -0.075666  -4.087321   2.252072   3.498405  -3.825674   0.014310   0.012504  -3.348867   0.337939  -2.798322  18.718494  -0.014099  -0.033506 -13.419001  -1.056134   1.072824   2.547494  -0.002642  -0.006064
 -2.373392   0.915364   3.945193  -1.432347  -4.556364   3.134114   7.067528   1.802940  -3.271655   3.168325  -0.784537  -1.532726  -0.804622  -4.123861   2.233043  -0.396506   2.974162  12.663209   4.129346   3.043771  25.449540   0.196144  11.417860  -0.060770   1.059609   0.436183  -6.007365   1.578543  -0.988273 -10.157528   4.465347  -4.383510 -19.228887   0.174707 -11.603199   0.086888   1.440733  -0.133964   4.229597 -18.753639   1.211581  -3.965281  32.682167  -0.020564  -0.078429  -3.752152   2.383648   3.761375  -6.455893   0.021803   0.025514  -3.208377   0.498042  -2.828538  20.408590  -0.013917  -0.028564 -14.951898  -1.158503   1.199417   2.889191  -0.002805  -0.005627
